<svg xmlns="http://www.w3.org/2000/svg" width="165.3275" height="139.0476" viewBox="0 0 165.3275 139.0476"><title>Asset 1</title><g id="Layer_2" data-name="Layer 2"><g id="Layer_1-2" data-name="Layer 1"><g opacity="0.99"><path d="M62.9637,76.4545a.8073.8073,0,0,1-.8052-.7571L59.8,37.556a.8072.8072,0,0,1,.7555-.8548l38.1415-2.3565a.81.81,0,0,1,.8548.7555l2.3565,38.14a.8066.8066,0,0,1-.7555.8548l-38.14,2.358C62.9968,76.4537,62.98,76.4545,62.9637,76.4545ZM61.46,38.2619,63.7192,74.793l36.53-2.2588-2.2572-36.53Z" fill="#fff"/></g><g opacity="0.99"><path d="M56.3252,71.443a.8073.8073,0,0,1-.8052-.7571L53.058,30.8466a.8066.8066,0,0,1,.7555-.8548L93.6521,27.53a.8191.8191,0,0,1,.8548.7555l2.462,39.8377a.8066.8066,0,0,1-.7555.8548L56.3749,71.4414C56.3583,71.4422,56.3418,71.443,56.3252,71.443Zm-1.6072-39.89,2.3628,38.2289,38.2281-2.3643L92.9462,29.19Z" fill="#fff"/></g><rect x="15.9159" y="95.8532" width="1.9404" height="1.9416" transform="translate(-6.3476 1.3241) rotate(-3.7807)" fill="#fff"/><polygon points="19.075 106.252 22.95 105.997 22.884 105.027 19.01 105.282 19.075 106.252" fill="#fff"/><rect x="46.2531" y="104.3991" width="1.9403" height="1.9415" transform="translate(-6.7575 3.2967) rotate(-3.7315)" fill="#fff"/><rect x="1.9177" y="99.344" width="0.9708" height="0.9722" transform="translate(-6.4418 0.3636) rotate(-3.7026)" fill="#fff"/><rect x="57.652" y="100.7627" width="0.9714" height="0.97" transform="translate(-6.5362 4.045) rotate(-3.7729)" fill="#fff"/><rect x="53.7786" y="101.0171" width="0.9698" height="0.9697" transform="translate(-6.5282 3.77) rotate(-3.7534)" fill="#fff"/><polygon points="55.748 101.89 56.717 101.827 56.653 100.859 55.684 100.922 55.748 101.89" fill="#fff"/><rect x="51.8422" y="101.1452" width="0.97" height="0.9696" transform="translate(-6.4539 3.5913) rotate(-3.7026)" fill="#fff"/><polygon points="120.353 45.114 120.361 45.235 121.385 46.019 122.169 44.994 122.289 44.988 121.258 44.082 120.353 45.114" fill="#fff"/><rect x="59.5886" y="100.6348" width="0.9722" height="0.971" transform="translate(-6.6953 4.2903) rotate(-3.8744)" fill="#fff"/><rect x="20.7421" y="91.6451" width="1.9407" height="1.9411" transform="translate(-6.118 1.6511) rotate(-3.8175)" fill="#fff"/><rect x="60.1115" y="93.791" width="0.9706" height="0.9706" transform="translate(-5.989 4.1301) rotate(-3.72)" fill="#fff"/><rect x="60.2387" y="95.728" width="0.9718" height="0.972" transform="translate(-6.2836 4.2656) rotate(-3.8253)" fill="#fff"/><rect x="12.9933" y="20.1803" width="1.9406" height="1.9413" transform="translate(-1.3638 0.9664) rotate(-3.7795)" fill="#fff"/><rect x="21.0464" y="85.5968" width="7.7633" height="0.9708" transform="translate(-5.6025 1.824) rotate(-3.7676)" fill="#fff"/><rect x="81.0631" y="8.7343" width="1.9407" height="1.9403" transform="translate(-0.4614 5.431) rotate(-3.7813)" fill="#fff"/><path d="M120.6315,19.8079,119.6,18.9018l-.9053,1.033.1274,1.9373L117.79,20.966l-.905,1.0322-1.0326-.9046-.9038,1.0325-.0545-.829-1.6465.1085.7557,11.4815,1.6464-.1084.0639.9692-1.6464.1084,2.36,35.832,5.5188-.3617.0644.9674-5.5193.3635.8748,13.29-.1379.0091.2553,3.8757-2.09.1375.0177.2675-.2846-.25-1.4033.0921-.2484.2846-.2849-.2487-1.4039.0919-.2487.2836-.2837-.2484-1.4054.0928-.248.2834-.2849-.2488-1.4028.0926-.249.2844-.2845-.25-1.4028.0925-.25.285-.2851-.25-1.4027.0925-.249.2845-.2843-.2486-1.405.0917-.2482.2837.1278,1.9384-1.0331-.9053-.903,1.0314-.12-1.8162,1.023.7848.7851-1.0242.12-.0089-.283-.2483-1.4047.0927-.2482.2837-.2836-.2485L98.2272,89.1l-.2487.2833-.2834-.2493-1.4054.0928-.2484.2846-.0173-.2665-1.9371.1278.4008,6.0764-3.8735.2552.0628.9689,3.8748-.2557.1909,2.9054,1.9383-.1275-.0653-.9686,2.9056-.1918-.0639-.9692.9683-.0628.0639.9691.9689-.063-.0639-.9692.9677-.063.0641.9683.9674-.0643-.0627-.9689.9677-.063.0639.9691.9694-.0648-.0647-.9684.9692-.0639.0641.9683.9677-.063-.0625-.97.9675-.0625.0641.9683.9689-.0627-.0639-.9692.9683-.0632.0639.9692.9682-.0651-.0627-.9689.9671-.0631.0633.969.9678-.0661-.0629-.968.9683-.0629.0627.9689.9694-.0648-.0639-.9691.9689-.0628.0644.9671-.9694.0648.0639.9692,12.5891-.8307-.7648-11.6207-7.7476.5108-.0629-.968,9.684-.6387-.0643-.9673-1.9367.126-3.57-54.2327-.122.0084-.91-.9116-.9048,1.031.1278,1.9384.1273,1.9353.1277,1.9365.128,1.9374.1255,1.9378.1282,1.9365.1277,1.9361.1278,1.9383.1285,1.9357-1.0333-.9044-.9044,1.032.128,1.9374.1268,1.9371.0076.12,1.0247.783.7848-1.023.1194-.0081.1279,1.9355.1265,1.938-1.0309-.9038-.9047,1.031-.1206-1.8164,1.0254.7854.7841-1.0254.12-.0088-1.0321-.9044-.905,1.0322-1.0315-.904-.905,1.0319-.1183-1.8158,1.0233.7839.7831-1.0238.1211-.0076-1.0319-.905-.9044,1.032-.1194-1.8161,1.0238.7841.783-1.0257.1221-.0065-1.0316-.9059-.9061,1.0338-.1185-1.8171,1.0246.7833.7825-1.0239.1212-.0076-1.0307-.9047-.9056,1.0317-.12-1.8171,1.0254.7854.7827-1.0248.1205-.0078-1.031-.9057-.9055,1.0339-.1192-1.8173,1.0247.7833.7828-1.0229.12-.0077-1.03-.9048-.9044,1.0323-.1218-1.817,1.0262.7846.7821-1.0249.12-.0068-1.03-.904-.9036,1.0316-.1206-1.8164,1.0243.7848.7835-1.0252.12-.0089-1.0308-.904-.9045,1.0323-.12-1.8163,1.0245.7839.7836-1.0233.12-.0089-1.0309-.9038-.9056,1.0317-.12-1.8171,1.0254.7854.783-1.0257.12-.007-1.0313-.9048-.9047,1.031-.12-1.8134,1.0249.7824.7833-1.0246.12-.0089-.12-1.8151,1.0256.7845.7833-1.0246.1209-.0068-1.0323-.906-.905,1.0319-.12-1.8154,1.0252.7835.7833-1.0246.1211-.0077-.1271-1.9362-1.0332-.9044-.905,1.0322.1277,1.9361-1.0307-.9047-.9044,1.0321-.12-1.8163,1.0244.7842.7839-1.0245.1191-.0069-.1182-1.8161,1.0233.7839.7841-1.0254.1214-.0085,1.0322.9063.9124-.9111-.119-1.8081,1.5429-.1029-.1281-1.9375-1.5429.1029-.0163-.2482-.1206.0056-.9122-.9121-.9044,1.0323ZM102.3184,90.6788l-.07-1.09,1.0891-.0719.0712,1.09Zm10.9041,1.2279-1.0912.07-.0718-1.0881,1.0905-.0725ZM121.2471,66.09l-1.0894.0705-.0717-1.0884,1.09-.0732Zm-5.2765-21.0526-1.0893.0725-.0712-1.088,1.0894-.0728Zm3.1069-19.2923-1.0313-.9048-.9053,1.0331-1.033-.9056L115.2034,26l-.1191-1.815,1.0236.7827.7838-1.0242.1209-.0067.0089.12,1.0246.7833.7828-1.0226.12-.0089Z" fill="#fff"/><polygon points="24.565 23.457 24.541 23.095 24.179 23.12 24.203 23.482 24.565 23.457" fill="#fff"/><rect x="14.8265" y="9.8761" width="0.9702" height="0.9698" transform="translate(-0.6514 1.0348) rotate(-3.79)" fill="#fff"/><rect x="49.9048" y="101.2732" width="0.9711" height="0.9694" transform="translate(-6.4367 3.4495) rotate(-3.6854)" fill="#fff"/><rect x="11.1529" y="22.2774" width="0.9706" height="0.9706" transform="translate(-1.4457 0.7991) rotate(-3.7026)" fill="#fff"/><rect x="26.8873" y="69.2278" width="1.0922" height="1.0923" transform="translate(-4.5338 1.9573) rotate(-3.7746)" fill="#fff"/><rect x="14.9882" y="70.6571" width="0.9712" height="0.9701" transform="translate(-4.7118 1.1908) rotate(-3.8253)" fill="#fff"/><rect x="0.0255" y="61.7559" width="5.8229" height="0.9712" transform="translate(-4.0979 0.3291) rotate(-3.7809)" fill="#fff"/><rect x="18.464" y="47.2552" width="5.8231" height="0.9712" transform="translate(-3.0832 1.5037) rotate(-3.7582)" fill="#fff"/><rect x="15.0845" y="35.6343" width="0.971" height="0.9708" transform="translate(-2.3 1.0809) rotate(-3.7026)" fill="#fff"/><polygon points="120.512 17.991 121.537 18.775 122.32 17.75 122.441 17.744 121.409 16.838 120.504 17.87 120.512 17.991" fill="#fff"/><rect x="61.0162" y="92.7582" width="0.9705" height="0.9708" transform="translate(-6.1104 4.3311) rotate(-3.8425)" fill="#fff"/><polygon points="120.643 5.217 121.557 4.307 121.548 4.185 121.426 4.194 120.516 3.278 119.611 4.313 120.643 5.217" fill="#fff"/><polygon points="119.587 33.492 119.596 33.613 120.619 34.397 121.404 33.374 121.524 33.365 120.493 32.461 119.587 33.492" fill="#fff"/><polygon points="120.516 3.278 121.43 2.368 121.421 2.247 119.484 2.374 120.516 3.278" fill="#fff"/><rect x="47.9664" y="101.4002" width="0.9723" height="0.9702" transform="matrix(0.9979, -0.0643, 0.0643, 0.9979, -6.4489, 3.3252)" fill="#fff"/><rect x="120.105" y="0.2539" width="7.7643" height="0.9709" transform="translate(0.2223 8.197) rotate(-3.79)" fill="#fff"/><rect x="105.7835" y="15.2132" width="7.7642" height="0.9709" transform="translate(-0.7973 7.2765) rotate(-3.7865)" fill="#fff"/><rect x="49.6498" y="97.3984" width="0.9704" height="0.9712" transform="translate(-6.3605 3.528) rotate(-3.79)" fill="#fff"/><rect x="59.9844" y="91.8546" width="0.97" height="0.9697" transform="translate(-5.9444 4.1787) rotate(-3.7725)" fill="#fff"/><polygon points="119.619 6.257 118.707 5.345 117.802 6.378 117.682 6.384 116.77 5.471 115.866 6.504 114.056 8.568 114.065 8.689 115.088 9.474 115.871 8.448 117.929 8.313 118.96 9.218 119.874 8.307 119.993 10.122 119.873 10.131 118.96 9.218 118.057 10.25 117.929 8.313 116.12 10.378 116.248 12.314 116.256 12.436 117.281 13.219 118.063 12.195 118.184 12.186 118.312 14.123 117.281 13.219 116.375 14.251 116.503 16.188 116.631 18.126 116.64 18.247 117.662 19.029 118.447 18.006 118.567 17.997 118.575 18.119 119.6 18.902 120.385 17.879 120.504 17.87 120.385 16.055 121.409 16.838 122.192 15.814 122.313 15.805 122.186 13.869 122.065 13.875 121.153 12.965 120.249 13.995 120.377 15.933 119.344 15.028 118.439 16.06 118.32 14.244 119.344 15.028 120.129 14.004 120.249 13.995 120.121 12.059 121.153 12.965 122.067 12.054 121.675 6.122 121.554 6.13 120.643 5.217 119.738 6.249 119.619 6.257" fill="#fff"/><polygon points="119.715 35.43 119.724 35.55 120.747 36.334 121.532 35.31 121.652 35.302 120.619 34.397 119.715 35.43" fill="#fff"/><rect x="47.7124" y="97.5265" width="0.971" height="0.9701" transform="translate(-6.3447 3.3838) rotate(-3.7728)" fill="#fff"/><rect x="51.587" y="97.2719" width="0.9695" height="0.9698" transform="translate(-6.3551 3.6602) rotate(-3.7944)" fill="#fff"/><polygon points="122.174 28.461 123.087 27.547 123.079 27.427 122.957 27.436 122.047 26.523 121.142 27.555 122.174 28.461" fill="#fff"/><rect x="61.1441" y="94.6956" width="0.9702" height="0.9707" transform="translate(-6.0453 4.1989) rotate(-3.7199)" fill="#fff"/><polygon points="120.096 41.241 120.105 41.362 121.13 42.145 121.914 41.12 122.034 41.113 121.002 40.209 120.096 41.241" fill="#fff"/><polygon points="24.447 10.577 24.454 10.698 25.48 11.482 26.384 10.45 24.447 10.577" fill="#fff"/><polygon points="26.257 8.513 26.264 8.635 27.289 9.419 28.072 8.393 26.257 8.513" fill="#fff"/><polygon points="25.078 18.318 26.894 18.198 25.861 17.294 25.078 18.318" fill="#fff"/><rect x="46.031" y="101.5282" width="0.9707" height="0.97" transform="translate(-6.4363 3.1877) rotate(-3.6711)" fill="#fff"/><polygon points="120.224 43.178 120.233 43.299 121.258 44.082 122.041 43.057 122.162 43.049 121.13 42.145 120.224 43.178" fill="#fff"/><polygon points="36.579 17.561 38.515 17.433 36.451 15.622 34.515 15.751 34.642 17.689 36.579 17.561" fill="#fff"/><polygon points="121.663 20.712 122.577 19.801 122.568 19.68 121.537 18.775 120.631 19.808 121.663 20.712" fill="#fff"/><polygon points="36.773 17.732 36.579 17.561 36.591 17.744 36.773 17.732" fill="#fff"/><polygon points="119.842 37.367 119.849 37.488 120.875 38.271 121.659 37.248 121.78 37.239 120.747 36.334 119.842 37.367" fill="#fff"/><polygon points="28.193 8.387 28.202 8.507 29.225 9.289 30.009 8.267 28.193 8.387" fill="#fff"/><rect x="61.2716" y="96.6336" width="0.9704" height="0.9705" transform="matrix(0.9978, -0.0658, 0.0658, 0.9978, -6.2567, 4.2742)" fill="#fff"/><polygon points="119.97 39.303 119.977 39.425 121.002 40.209 121.787 39.185 121.906 39.177 120.875 38.271 119.97 39.303" fill="#fff"/><polygon points="25.48 11.482 24.696 12.507 24.574 12.514 24.582 12.636 25.606 13.42 26.511 12.387 25.48 11.482" fill="#fff"/><rect x="50.8099" y="100.2409" width="0.9713" height="0.9704" transform="matrix(0.9978, -0.0661, 0.0661, 0.9978, -6.544, 3.6098)" fill="#fff"/><polygon points="48.842 100.401 48.906 101.369 49.875 101.306 49.811 100.338 48.842 100.401" fill="#fff"/><rect x="44.9992" y="100.6238" width="0.9698" height="0.9705" transform="translate(-6.5038 3.1851) rotate(-3.7432)" fill="#fff"/><polygon points="100.498 9.461 100.37 7.525 98.561 9.589 98.568 9.71 99.594 10.493 100.376 9.47 100.498 9.461" fill="#fff"/><rect x="46.9356" y="100.4951" width="0.9696" height="0.9711" transform="translate(-6.5109 3.3221) rotate(-3.7547)" fill="#fff"/><polygon points="64.777 91.302 60.904 91.558 60.921 91.823 61.891 91.761 61.954 92.727 62.923 92.663 62.987 93.633 62.018 93.695 62.081 94.665 63.05 94.601 63.114 95.569 62.145 95.634 62.209 96.602 63.178 96.54 63.241 97.507 62.273 97.571 62.337 98.539 69.116 98.094 69.052 97.125 65.177 97.38 64.777 91.302" fill="#fff"/><rect x="91.7679" y="23.5911" width="1.941" height="1.9402" transform="translate(-1.4205 6.1826) rotate(-3.7893)" fill="#fff"/><rect x="81.39" y="14.5765" width="0.9694" height="0.1848" transform="matrix(0.9978, -0.0661, 0.0661, 0.9978, -0.7906, 5.444)" fill="#fff"/><polygon points="61.304 97.635 60.336 97.698 60.272 96.731 59.303 96.794 59.366 97.763 58.398 97.826 58.335 96.857 57.367 96.922 57.43 97.889 56.462 97.953 56.398 96.985 55.43 97.05 55.494 98.017 54.525 98.081 54.461 97.113 53.493 97.178 53.684 100.081 54.653 100.018 54.716 100.986 55.684 100.922 55.621 99.953 56.589 99.89 56.653 100.859 57.621 100.796 57.557 99.826 58.526 99.762 58.59 100.731 59.557 100.668 59.494 99.699 60.464 99.634 60.528 100.604 63.433 100.413 63.496 101.38 65.433 101.254 65.305 99.317 62.401 99.509 62.337 98.539 61.368 98.602 61.304 97.635" fill="#fff"/><path d="M44,100.7205l-1.9374.1278L41.9347,98.91l-5.8109.382-.0638-.9682L47.6813,97.56l-.0633-.97.9689-.063.063.968.9691-.0636-.0636-.9691.9689-.063.063.968.9687-.0619-.0634-.97.967-.0644.0639.9692.97-.0628-.0646-.97.9682-.0638.0639.9692.9689-.063-.0639-.9692.968-.0629.0643.9673.9689-.063-.0639-.9692.9681-.0632.0632.968.9682-.0638-.0641-.9683.9692-.0638-.0639-.9692-.9685.065-.0638-.9682.97-.0657-.0641-.9683-.9694.0648-.0638-.9682.97-.0637-.0177-.2675-12.5915.83.0173.2655-9.6828.639-.0648-.9694,2.5281-.1668-.5694-8.6277.1391-.009-.5161-7.835-4.6026.3028-.0627-.9689,4.6014-.3031L37.666,52.5045l-.7289.048-.1266-1.938-2.0627-1.8081,1.9354-.1273.1273,1.9354.7278-.0474L35.856,25.0253l-.3643.0237-.0725-1.0905.3654-.0235-.2391-3.63-.7768-.6818.1275,1.94-2.065-1.8115L32.96,21.69l1.9365-.1279.3837,5.81.1262,1.936.1278,1.9374.1282,1.9366.2558,3.8735.1265,1.9384.1272,1.9359.1274,1.9386.1284,1.9362-2.0637-1.808,1.9353-.1282-1.0307-.9059-.9053,1.0331-2.0642-1.8095.128,1.9365.1272,1.9359.1277,1.9377,1.9363-.1274,1.9374-.1277.1278,1.9374-2.0651-1.81.1273,1.9354-2.0636-1.808.1278,1.9371.1273,1.9354.126,1.9369.128,1.9374.128,1.9365.1277,1.9374.1278,1.9374.1268,1.9371L32.67,61.5879l-.905,1.0322-.12-1.8163,1.0254.7842.783-1.0245.1214-.0085L32.5424,59.65l-.9053,1.0321-.1194-1.8151,1.0248.783.7827-1.0236.1213-.0086-1.032-.9044-.9053,1.0321L31.39,56.93l1.0247.783.783-1.0245.1214-.0085-1.0324-.9042-.905,1.0319-.12-1.8143,1.0249.7824.7833-1.0246.1212-.0077-1.0322-.905-.9043,1.033-.12-1.8161,1.0238.783.7831-1.0237.1211-.0087-1.031-.9047-.9043,1.033-.12-1.8172,1.0244.7842.7837-1.0227.1213-.01-1.0319-.905-.9055,1.0327-.12-1.8162,1.0256.7835.7819-1.0241.1227-.0063-1.0317-.9058-.9058,1.0339-.1206-1.8176,1.0264.7838.7819-1.0241.122-.0072-1.032-.9044-.9053,1.0321-.12-1.8174,1.0251.7853.7821-1.0249.1223-.0084-1.0324-.9041-.905,1.0322-.1206-1.8154,1.0256.7833.7841-1.0242.1212-.0076-1.033-.9056L30.49,43.25l-.12-1.8163,1.0245.7839.7842-1.0245.1208-.0065-1.0333-.9044-.9039,1.0312-.12-1.8151,1.0236.784.7844-1.0253.1206-.0069-1.0326-.9061-.9044,1.032-.1194-1.8151,1.0238.783.7837-1.0236.1213-.0086-1.0321-.9041-.9044,1.032-.12-1.8163,1.0244.7842.7828-1.0239.1214-.0085-1.0322-.905-.9043,1.0329-1.0317-.9058-.9053,1.0318L30.9108,79.21l-.3294-.2126.0635.9709.33.21,1.4671,22.2739-9.684.64.0641.9683L45.096,102.592l-.0641-.9673-.968.0632ZM34.096,62.9525l1.0905-.0722.071,1.0912-1.09.0695ZM34.6068,70.7l1.0891-.0719.072,1.0885-1.09.0713Z" fill="#fff"/><polygon points="109.149 7.919 110.063 7.008 110.054 6.887 109.933 6.894 109.022 5.981 108.117 7.015 109.149 7.919" fill="#fff"/><polygon points="25.606 13.42 24.823 14.443 24.702 14.452 24.71 14.573 25.734 15.357 26.639 14.324 25.606 13.42" fill="#fff"/><rect x="47.5327" y="78.8679" width="6.7243" height="0.9712" transform="translate(-5.0879 3.5037) rotate(-3.7552)" fill="#fff"/><polygon points="102.435 9.334 102.307 7.397 100.498 9.461 100.506 9.582 101.531 10.366 102.314 9.34 102.435 9.334" fill="#fff"/><polygon points="25.734 15.357 24.95 16.38 24.829 16.389 24.837 16.511 25.861 17.294 26.767 16.261 25.734 15.357" fill="#fff"/><polygon points="31.024 21.817 29.991 20.911 29.085 21.945 29.094 22.065 30.119 22.849 30.902 21.825 31.024 21.817" fill="#fff"/><polygon points="111.87 6.766 110.959 5.855 110.054 6.887 111.87 6.766" fill="#fff"/><polygon points="28.832 18.071 28.711 16.255 29.736 17.039 30.519 16.014 30.64 16.006 29.609 15.101 28.704 16.133 28.585 14.317 29.609 15.101 30.392 14.077 30.513 14.069 32.45 13.942 34.387 13.814 32.322 12.006 31.289 11.101 30.385 12.133 29.353 11.227 28.448 12.259 27.416 11.354 26.511 12.387 26.639 14.324 26.767 16.261 26.894 18.198 26.903 18.319 27.927 19.103 28.71 18.079 28.832 18.071" fill="#fff"/><polygon points="29.851 33.566 28.819 32.661 27.915 33.693 27.922 33.814 28.947 34.597 29.73 33.574 29.851 33.566" fill="#fff"/><polygon points="29.724 31.629 29.605 29.814 30.628 30.597 31.412 29.572 31.534 29.564 30.501 28.658 29.596 29.692 29.477 27.875 30.501 28.658 31.285 27.635 31.406 27.626 33.343 27.499 31.278 25.69 30.246 24.785 29.34 25.818 29.468 27.754 28.435 26.85 27.532 27.882 27.795 31.878 28.819 32.661 29.602 31.635 29.724 31.629" fill="#fff"/><polygon points="29.085 21.945 28.967 20.13 29.991 20.911 30.775 19.888 30.895 19.879 29.864 18.976 28.959 20.007 27.927 19.103 27.022 20.134 27.158 22.193 28.181 22.977 28.964 21.953 29.085 21.945" fill="#fff"/><polygon points="115.744 6.512 114.832 5.599 113.929 6.632 115.744 6.512" fill="#fff"/><polygon points="29.34 25.818 29.222 24.003 30.246 24.785 31.029 23.762 31.151 23.754 30.119 22.849 29.213 23.881 28.181 22.977 27.276 24.009 27.412 26.067 28.435 26.85 29.22 25.827 29.34 25.818" fill="#fff"/><rect x="52.7463" y="100.112" width="0.9704" height="0.9712" transform="translate(-6.4684 3.6987) rotate(-3.7517)" fill="#fff"/><polygon points="103.458 98.749 104.428 98.686 104.363 97.719 103.394 97.781 103.458 98.749" fill="#fff"/><rect x="107.2989" y="97.4937" width="0.9719" height="0.9702" transform="translate(-6.1715 7.2518) rotate(-3.7463)" fill="#fff"/><rect x="105.3628" y="97.6207" width="0.9707" height="0.9701" transform="translate(-6.0643 6.9786) rotate(-3.6711)" fill="#fff"/><rect x="111.1736" y="97.2393" width="0.9703" height="0.9693" transform="translate(-6.0796 7.4171) rotate(-3.7038)" fill="#fff"/><rect x="109.2368" y="97.3675" width="0.9711" height="0.9687" transform="matrix(0.9978, -0.0656, 0.0656, 0.9978, -6.1827, 7.4085)" fill="#fff"/><polygon points="114.191 10.627 115.216 11.41 115.999 10.387 116.12 10.378 115.088 9.474 114.183 10.506 114.191 10.627" fill="#fff"/><rect x="113.1094" y="97.1106" width="0.9707" height="0.9709" transform="translate(-6.2308 7.7595) rotate(-3.8079)" fill="#fff"/><polygon points="112.246 10.634 112.255 10.754 113.279 11.538 114.062 10.513 114.183 10.506 113.151 9.602 112.246 10.634" fill="#fff"/><rect x="101.4886" y="97.8765" width="0.971" height="0.9696" transform="translate(-6.1043 6.7496) rotate(-3.6809)" fill="#fff"/><rect x="99.5523" y="98.0029" width="0.9702" height="0.9707" transform="translate(-6.2671 6.7998) rotate(-3.7749)" fill="#fff"/><polygon points="119.492 2.496 119.484 2.374 117.545 2.502 118.578 3.406 119.492 2.496" fill="#fff"/><rect x="106.8325" y="75.1211" width="1.9405" height="1.9413" transform="translate(-4.7511 7.2222) rotate(-3.7544)" fill="#fff"/><polygon points="64.163 81.972 64.157 81.884 64.075 81.978 64.163 81.972" fill="#fff"/><rect x="56.6479" y="25.9023" width="1.9404" height="1.9416" transform="translate(-1.6468 3.8583) rotate(-3.7813)" fill="#fff"/><polygon points="65.125 81.819 65.132 81.908 66.1 81.845 66.093 81.756 65.125 81.819" fill="#fff"/><rect x="106.0598" y="34.3463" width="1.1579" height="0.9706" transform="translate(-2.0346 6.9897) rotate(-3.7187)" fill="#fff"/><rect x="162.5987" y="90.5719" width="1.1583" height="0.9707" transform="translate(-5.5622 10.7751) rotate(-3.7187)" fill="#fff"/><rect x="130.8571" y="42.5634" width="1.158" height="0.9707" transform="translate(-2.537 8.6999) rotate(-3.7549)" fill="#fff"/><rect x="85.5559" y="87.1583" width="1.1579" height="0.9707" transform="translate(-5.5548 5.829) rotate(-3.7549)" fill="#fff"/><rect x="91.5249" y="84.6525" width="1.1579" height="0.9709" transform="translate(-5.3779 6.2146) rotate(-3.755)" fill="#fff"/><rect x="132.2589" y="14.751" width="1.158" height="0.9706" transform="matrix(0.9979, -0.0649, 0.0649, 0.9979, -0.7085, 8.6477)" fill="#fff"/><rect x="164.1389" y="17.9227" width="1.1579" height="0.9709" transform="translate(-0.8519 10.8268) rotate(-3.755)" fill="#fff"/><rect x="141.3107" y="73.5394" width="1.1582" height="0.9706" transform="translate(-4.5036 9.3615) rotate(-3.7199)" fill="#fff"/><rect x="44.4774" y="32.5746" width="0.9024" height="0.9706" transform="translate(-2.0504 2.9848) rotate(-3.7202)" fill="#fff"/><rect x="67.2487" y="9.6433" width="1.9399" height="1.9422" transform="translate(-0.5495 4.4991) rotate(-3.7622)" fill="#fff"/><polygon points="27.416 11.354 28.199 10.33 28.32 10.323 27.289 9.419 26.384 10.45 26.392 10.572 27.416 11.354" fill="#fff"/><polygon points="33.471 29.437 33.478 29.558 34.502 30.341 35.285 29.316 35.406 29.309 34.375 28.405 33.471 29.437" fill="#fff"/><polygon points="33.597 31.373 33.605 31.494 34.63 32.277 35.413 31.254 35.534 31.246 34.502 30.341 33.597 31.373" fill="#fff"/><path d="M33.9805,37.1841l-2.0653-1.8088.1279,1.9365.1275,1.9383,1.9374-.1278-.12-1.8171,1.0256.7833.7828-1.0239.1213-.0086-1.0324-.9041ZM33.6,38.79l-1.09.0724-.0722-1.09,1.09-.0717Z" fill="#fff"/><polygon points="33.725 33.309 35.662 33.183 34.63 32.277 33.725 33.309" fill="#fff"/><polygon points="33.343 27.499 33.351 27.62 34.375 28.405 35.159 27.381 35.28 27.373 34.248 26.468 33.343 27.499" fill="#fff"/><polygon points="116.631 18.126 115.598 17.221 114.694 18.252 114.727 18.756 114.702 18.374 115.725 19.158 116.509 18.134 116.631 18.126" fill="#fff"/><polygon points="116.766 20.182 117.79 20.966 118.575 19.943 118.695 19.935 117.662 19.029 116.757 20.062 116.766 20.182" fill="#fff"/><polygon points="34.108 39.122 34.116 39.242 35.141 40.025 35.924 39.002 36.045 38.994 35.014 38.088 34.108 39.122" fill="#fff"/><polygon points="31.024 21.817 32.96 21.69 30.895 19.879 31.024 21.817" fill="#fff"/><polygon points="35.024 23.5 32.96 21.69 33.088 23.627 35.024 23.5" fill="#fff"/><polygon points="116.757 20.062 115.725 19.158 114.822 20.189 114.829 20.311 115.853 21.094 116.637 20.07 116.757 20.062" fill="#fff"/><polygon points="34.886 36.152 35.669 35.128 33.853 35.248 33.861 35.368 34.886 36.152" fill="#fff"/><polygon points="32.182 24.658 31.278 25.69 33.215 25.562 32.182 24.658" fill="#fff"/><polygon points="31.406 27.626 31.534 29.564 33.471 29.437 31.406 27.626" fill="#fff"/><polygon points="33.597 31.373 31.534 29.564 31.662 31.501 33.597 31.373" fill="#fff"/><polygon points="33.224 25.683 34.248 26.468 35.032 25.444 35.152 25.436 33.088 23.627 33.215 25.562 33.224 25.683" fill="#fff"/><polygon points="34.236 41.059 34.243 41.178 35.268 41.963 36.05 40.939 36.172 40.93 35.141 40.025 34.236 41.059" fill="#fff"/><polygon points="32.182 24.658 32.967 23.634 33.088 23.627 31.024 21.817 31.151 23.754 31.16 23.875 32.182 24.658" fill="#fff"/><polygon points="31.788 33.438 33.725 33.309 31.662 31.501 30.628 30.597 29.724 31.629 29.851 33.566 29.858 33.688 30.883 34.47 31.667 33.446 31.788 33.438" fill="#fff"/><polygon points="32.171 39.25 32.299 41.187 34.236 41.059 32.171 39.25" fill="#fff"/><polygon points="30.513 14.069 30.64 16.006 32.577 15.878 30.513 14.069" fill="#fff"/><polygon points="31.788 33.438 31.915 35.375 33.853 35.248 31.788 33.438" fill="#fff"/><polygon points="44.07 13.175 46.009 13.049 43.944 11.24 44.07 13.175" fill="#fff"/><polygon points="38.134 11.622 37.101 10.718 36.196 11.75 38.134 11.622" fill="#fff"/><polygon points="118.707 5.345 119.62 4.434 119.611 4.313 119.492 4.319 118.578 3.406 117.675 4.441 118.707 5.345" fill="#fff"/><polygon points="38.141 11.744 39.165 12.526 39.948 11.505 40.07 11.496 39.038 10.59 38.134 11.622 38.141 11.744" fill="#fff"/><polygon points="35.164 10.846 34.259 11.878 36.196 11.75 35.164 10.846" fill="#fff"/><polygon points="108.5 12.825 108.38 11.009 109.405 11.792 110.188 10.769 108.373 10.888 107.34 9.983 106.436 11.014 105.404 10.111 104.5 11.142 103.467 10.239 102.562 11.27 101.531 10.366 100.625 11.397 99.594 10.493 98.688 11.524 97.656 10.621 96.75 11.652 96.631 9.836 97.656 10.621 98.438 9.597 98.561 9.589 97.528 8.685 96.623 9.716 95.592 8.813 94.687 9.844 94.569 8.028 95.592 8.813 96.376 7.788 96.495 7.781 95.463 6.874 94.559 7.907 93.527 7.002 92.623 8.034 91.591 7.129 90.685 8.162 90.566 6.346 91.591 7.129 92.374 6.105 92.495 6.096 92.504 6.218 93.527 7.002 94.31 5.977 94.433 5.968 94.441 6.09 95.463 6.874 96.248 5.851 96.368 5.843 96.495 7.781 96.503 7.9 97.528 8.685 98.311 7.66 100.37 7.525 102.307 7.397 102.18 5.461 104.116 5.333 102.307 7.397 104.243 7.27 102.435 9.334 102.442 9.453 103.467 10.239 104.25 9.214 104.373 9.206 104.243 7.27 106.181 7.143 104.373 9.206 104.379 9.326 105.404 10.111 106.187 9.086 106.309 9.078 106.181 7.143 107.996 7.024 107.084 6.109 106.181 7.142 106.053 5.205 107.084 6.109 107.998 5.198 107.989 5.077 109.022 5.981 109.934 5.07 109.927 4.949 110.959 5.855 111.872 4.942 111.864 4.821 112.896 5.727 113.809 4.815 113.802 4.694 114.832 5.599 115.746 4.689 115.737 4.567 116.77 5.471 117.682 4.56 117.675 4.441 117.545 2.502 86.556 4.542 87.206 14.41 110.448 12.88 110.437 12.696 109.405 11.792 108.5 12.825" fill="#fff"/><polygon points="32.705 17.816 30.64 16.006 30.768 17.943 32.705 17.816" fill="#fff"/><polygon points="110.437 12.696 112.373 12.57 111.342 11.665 110.437 12.696" fill="#fff"/><path d="M31.289,11.1013l.7845-1.0253.1213-.0086.0077.1212,1.0253.7832.783-1.0235.1222-.0083.0065.1208,1.0242.7851L35.9473,9.82l.1209-.0068.0073.1211,1.0256.7833.783-1.0235.1211-.0086.0076.1212,1.0248.783.7839-1.0235.121-.0084.0078.1209,1.0233.7848.7842-1.0254.12-.0088.1274,1.9385-1.032-.9044L40.07,11.4961l1.9362-.1281.128,1.9362L40.07,11.4961l.1276,1.9342-1.0324-.9041-.9041,1.0321L36.1961,11.75l.1271,1.9362-2.0645-1.8085.1924,2.9038,9.685-.6366.0624.9679-1.9378.13.1282,1.9355-2.0642-1.8094.1271,1.9362-2.0631-1.81.139,2.1219,23.2431-1.531-.6494-9.8671L30.13,8.2592l.128,1.9362.0085.1214Zm20.53,1.5645-2.0634-1.8089,1.9363-.1274Zm-6.065-3.4906.1268,1.9371,1.9365-.1279.1268,1.9371,1.9371-.1268-2.064-1.81,1.9362-.1271.2558,3.8735-2.0652-1.8093.1278,1.9374-2.0631-1.81.1283,1.9365L42.0057,11.368l3.8749-.2557L43.8161,9.3038Z" fill="#fff"/><polygon points="29.353 11.227 30.136 10.202 30.258 10.195 29.225 9.289 28.32 10.323 28.329 10.444 29.353 11.227" fill="#fff"/><polygon points="47.944 12.922 45.881 11.112 46.009 13.049 47.944 12.922" fill="#fff"/><polygon points="106.309 9.078 106.317 9.199 107.34 9.983 108.124 8.958 108.245 8.95 108.117 7.015 106.309 9.078" fill="#fff"/><polygon points="112.119 8.696 112 6.88 113.023 7.663 113.807 6.64 112.896 5.727 111.992 6.76 110.183 8.824 110.062 8.831 109.149 7.919 108.245 8.95 108.309 9.919 112.182 9.665 112.126 8.817 113.151 9.602 113.934 8.576 114.056 8.568 113.023 7.663 112.119 8.696" fill="#fff"/><polygon points="30.895 19.879 32.831 19.751 30.768 17.943 30.895 19.879" fill="#fff"/><polygon points="32.705 17.816 32.831 19.751 34.769 19.623 34.642 17.689 33.61 16.783 32.705 17.816" fill="#fff"/><polygon points="116.503 16.188 115.47 15.283 114.566 16.315 114.575 16.438 115.598 17.221 116.382 16.197 116.503 16.188" fill="#fff"/><polygon points="116.375 14.251 115.344 13.347 114.439 14.377 114.447 14.502 115.47 15.283 116.255 14.26 116.375 14.251" fill="#fff"/><polygon points="30.768 17.943 29.736 17.039 28.832 18.071 28.839 18.192 29.864 18.976 30.647 17.951 30.768 17.943" fill="#fff"/><polygon points="33.61 16.783 34.393 15.759 34.515 15.751 32.45 13.942 32.586 16 33.61 16.783" fill="#fff"/><polygon points="32.322 12.006 34.259 11.878 33.228 10.972 32.322 12.006" fill="#fff"/><polygon points="110.31 10.76 110.317 10.882 111.342 11.665 112.125 10.641 110.31 10.76" fill="#fff"/><polygon points="112.373 12.57 112.204 12.764 112.387 12.752 112.382 12.692 112.455 12.748 114.042 12.643 114.19 12.45 114.311 12.443 113.279 11.538 112.373 12.57" fill="#fff"/><polygon points="116.248 12.314 115.216 11.41 114.311 12.443 114.32 12.564 115.344 13.347 116.127 12.323 116.248 12.314" fill="#fff"/><path d="M35.6928,126.6044l-1.2136-17.1807,6.43-.4544c3.4451-.2436,6.7947,1.2759,7.0783,5.28l.4082,5.7752c.28,3.9551-2.8277,5.882-6.2728,6.1256Zm6.2877-4.541c1.1884-.0841,2.113-.8087,2.0485-1.73l-.41-5.7762a1.971,1.971,0,0,0-2.2784-1.545l-2.21.1558.64,9.0512Z" fill="#fff"/><path d="M63.43,111.5243l-7.5711.5345.2167,3.0815,6.6254-.4675.2865,4.052-6.6246.4683.4184,5.9207-4.3927.31-1.2128-17.18,11.9619-.8456Z" fill="#fff"/><path d="M82.1636,123.3206l-5.411.3824-4.6331-5.16-.7763.055.3857,5.46-4.3919.3109-1.2128-17.1805,6.8674-.4854c3.5418-.25,6.3986,1.1824,6.782,5.2034.2224,3.1786-.9366,5.0653-2.9768,5.8687Zm-8.5364-8.64a1.9722,1.9722,0,1,0-.2779-3.9306l-2.5479.18.2777,3.93Z" fill="#fff"/><path d="M89.4185,105.1779c3.5666-.2521,7.2733,1.4609,7.5508,5.392l.4326,6.1137c.2774,3.9316-3.1272,6.1476-6.694,6.4s-7.2728-1.4614-7.5507-5.3925l-.432-6.1148C82.4458,107.62,85.852,105.43,89.4185,105.1779Zm-1.9169,12.2049c.1513,2.5022,5.7327,2.1081,5.5563-.3924l-.4323-6.1137c-.2091-2.6193-5.7366-2.1556-5.5564.3924Z" fill="#fff"/><path d="M103.2828,116.3654c1.87,1.9647,5.6618,1.7946,5.653-.0581-.02-.9729-1.6363-1.42-3.0563-1.5146-2.7982-.2414-5.4939-1.807-5.6773-5.0863-.0436-3.3857,2.6942-5.36,5.85-5.583a7.0731,7.0731,0,0,1,6.0648,2.3271l-2.6848,2.3848c-1.9309-1.79-5.0068-1.5-4.9388.4956.1062.8206,1.0383,1.2428,2.393,1.439,3.0974.3422,6.2271,1.1455,6.3337,5.43-.0558,3.3452-3.2775,5.3774-6.432,5.6a7.52,7.52,0,0,1-6.066-2.6678Z" fill="#fff"/><path d="M128.1731,102.78l.2917,4.124-4.6347.3275.9242,13.08-4.3918.31-.924-13.08-4.6346.3275-.292-4.1242Z" fill="#fff"/><path d="M35.8873,138.2237l-1.3235.0936-.4534-6.4211,2.53-.1783a2.2236,2.2236,0,1,1,.3223,4.4334l-1.2158.0855Zm.8468-5.1642-1.2054.0849.13,1.8406,1.2063-.0847A.9246.9246,0,1,0,36.7341,133.0594Z" fill="#fff"/><path d="M40.1331,131.4706l1.3345-.0941.4534,6.4211-1.3345.0941Z" fill="#fff"/><path d="M46.4036,134.2719c.4535.6062,1.7761,2.4268,2.258,3.0491l-1.6328.1157L45.58,135.2607l-1.0272,2.35-1.6415.1161,1.6681-3.3353-2.103-3.087,1.6233-.1149,1.3487,2.2019,1.1368-2.3772,1.6224-.1152Z" fill="#fff"/><path d="M53.525,131.8279l-3.01.2124.0889,1.2608,2.7661-.1957.091,1.2967-2.7661.1956.09,1.27,3.0109-.2122.0905,1.2965-4.3532.3069-.453-6.43,4.3532-.3069Z" fill="#fff"/><path d="M59.3772,136.5638l-4.1088.29-.4534-6.4211,1.3326-.0939.36,5.0783,2.7756-.1965Z" fill="#fff"/><path d="M66.9375,132.5934a1.6113,1.6113,0,0,1,.9894,1.7264c-.0576.869-.6286,1.6844-2.1083,1.7887l-2.5833.1834-.4549-6.43,2.54-.18a1.8433,1.8433,0,0,1,2.1466,1.7441A1.3227,1.3227,0,0,1,66.9375,132.5934Zm-1.44-.3905c.9075-.0637.93-1.2864-.0853-1.2151l-1.2065.0853.087,1.2161Zm-1.1249,1.2277.1041,1.47,1.2055-.0854c1.2524-.0885,1.1668-1.56-.1041-1.47Z" fill="#fff"/><path d="M71.6077,133.2293l.1742,2.458-1.3348.094-.1721-2.4575-2.5111-3.806,1.5316-.1072,1.5509,2.5886,1.17-2.7815,1.5523-.109Z" fill="#fff"/><path d="M78.8413,135.1889l-1.3244.0934-.4532-6.42,2.53-.18a2.2243,2.2243,0,1,1,.3242,4.4345l-1.2177.0856Zm.8482-5.1645-1.2075.0856.1306,1.8409,1.2065-.0853A.9247.9247,0,1,0,79.6894,130.0244Z" fill="#fff"/><path d="M83.0884,128.4356l1.3326-.0939.4535,6.4205-1.3327.0945Z" fill="#fff"/><path d="M89.3577,131.2365c.4524.6071,1.7762,2.428,2.2559,3.05l-1.6324.1158-1.447-2.1767-1.0275,2.3516-1.6427.1157,1.67-3.3353-2.1052-3.0868,1.6242-.1147,1.3493,2.2008,1.1356-2.3763,1.6221-.1152Z" fill="#fff"/><path d="M96.4794,128.7926l-3.0115.2134.0892,1.2609,2.7659-.1958.0922,1.2969-2.767.1955.0907,1.27,3.01-.2139.0932,1.2972-4.3535.308-.4549-6.43,4.3533-.3082Z" fill="#fff"/><path d="M102.3313,133.53l-4.1088.29-.4534-6.4211,1.3336-.0943.3587,5.0781,2.7752-.1959Z" fill="#fff"/><path d="M106.4118,126.211l3.8306-.2705-1.6774,4.0441-2.9776.211Z" fill="#fff"/><path d="M117.2758,125.6547l.93,13.1774-3.0514.2155-.6188-8.76-1.2274.9821-1.8914-1.4281,3.2976-4.0067Z" fill="#fff"/><path d="M125.4414,138.4357c-3.8958.6937-7.15-4.088-3.72-7.0556a2.85,2.85,0,0,1-1.3442-2.3239c-.2217-3.13,2.3936-4.1529,4.1-4.2719l.266-.02c2.2188-.1566,4.4575.79,4.6692,3.786a3.1017,3.1017,0,0,1-.9976,2.3373,3.3449,3.3449,0,0,1,1.8586,2.8415c.1429,2.8295-1.6924,4.6368-4.5661,4.687Zm-.7693-10.8836a1.296,1.296,0,1,0,.2844-.02Zm.855,7.7709a1.4506,1.4506,0,1,0-.1475-2.8851l-.4372.03a1.4481,1.4481,0,1,0,.2622,2.8774Z" fill="#fff"/></g></g></svg>